<?xml version="1.0" standalone="no"?>
<!DOCTYPE svg PUBLIC "-//W3C//DTD SVG 20010904//EN"
 "http://www.w3.org/TR/2001/REC-SVG-20010904/DTD/svg10.dtd">
<svg version="1.0" xmlns="http://www.w3.org/2000/svg"
 width="38.000000pt" height="48.000000pt" viewBox="0 0 38.000000 48.000000"
 preserveAspectRatio="xMidYMid meet">

<g transform="translate(0.000000,48.000000) scale(0.100000,-0.100000)"
fill="#000000" stroke="none">
<path d="M112 433 c-49 -24 -75 -68 -80 -132 -5 -70 22 -115 88 -148 56 -29
84 -29 140 0 61 30 90 76 90 141 0 120 -127 194 -238 139z m147 -21 c66 -35
90 -125 51 -189 -51 -85 -189 -85 -240 0 -55 89 14 207 120 207 19 0 51 -8 69
-18z"/>
<path d="M138 316 l-47 -81 25 -3 c14 -2 41 6 61 18 l36 21 14 -21 c8 -11 25
-20 39 -20 l26 0 -23 38 c-33 55 -36 57 -64 44 -26 -12 -26 -12 -11 10 19 27
20 52 4 66 -10 7 -25 -10 -60 -72z"/>
<path d="M130 58 c0 -19 2 -20 10 -8 13 19 13 30 0 30 -5 0 -10 -10 -10 -22z"/>
<path d="M156 65 c-9 -26 -7 -32 5 -12 6 10 9 21 6 23 -2 3 -7 -2 -11 -11z"/>
<path d="M186 64 c-8 -21 -4 -25 14 -14 11 7 12 12 4 20 -8 8 -13 7 -18 -6z"/>
<path d="M220 60 c0 -9 6 -17 13 -17 7 0 13 8 13 17 0 9 -6 17 -13 17 -7 0
-13 -8 -13 -17z"/>
</g>
</svg>
