<?xml version="1.0" standalone="no"?>
<!DOCTYPE svg PUBLIC "-//W3C//DTD SVG 20010904//EN"
 "http://www.w3.org/TR/2001/REC-SVG-20010904/DTD/svg10.dtd">
<svg version="1.0" xmlns="http://www.w3.org/2000/svg"
 width="256.000000pt" height="256.000000pt" viewBox="0 0 256.000000 256.000000"
 preserveAspectRatio="xMidYMid meet">

<g transform="translate(0.000000,256.000000) scale(0.100000,-0.100000)"
fill="#000000" stroke="none">
<path d="M1100 2178 c-25 -5 -54 -13 -65 -17 -11 -5 -40 -17 -65 -27 -188 -79
-345 -272 -392 -484 -15 -69 -15 -219 0 -285 28 -116 63 -189 136 -283 65 -84
144 -147 244 -194 194 -92 391 -89 589 7 78 38 109 61 178 130 136 135 199
289 198 485 0 145 -30 249 -108 370 -97 150 -254 261 -419 296 -70 15 -229 16
-296 2z m275 -97 c89 -23 135 -44 210 -97 100 -70 175 -172 216 -294 30 -88
33 -268 6 -350 -66 -197 -200 -334 -387 -395 -115 -37 -244 -36 -358 4 -184
63 -320 205 -377 391 -28 93 -27 260 4 350 48 144 149 264 284 339 63 35 196
70 267 70 36 0 97 -8 135 -18z"/>
<path d="M1140 1793 c-52 -91 -108 -189 -124 -217 -16 -28 -39 -69 -52 -92
-12 -22 -34 -59 -48 -82 -14 -23 -26 -44 -26 -46 0 -3 -13 -28 -30 -56 -16
-28 -30 -53 -30 -56 0 -4 53 -4 118 -2 l117 3 127 75 c70 41 128 80 128 85 0
6 -12 23 -27 39 -14 16 -22 27 -16 25 6 -2 42 -43 80 -90 38 -47 76 -94 86
-103 9 -10 17 -22 17 -27 0 -5 45 -9 100 -9 55 0 100 2 100 5 0 2 -13 26 -28
52 -16 26 -31 55 -35 63 -5 8 -13 24 -20 35 -7 11 -21 36 -33 55 -12 19 -43
72 -69 118 -26 45 -50 82 -52 82 -6 0 -178 -92 -187 -101 -6 -5 -3 -16 6 -26
25 -30 32 -50 9 -25 -12 12 -28 22 -36 22 -10 0 -4 17 20 59 19 33 35 63 35
67 0 4 6 15 14 23 7 9 26 39 41 66 l28 51 -49 87 c-27 47 -53 87 -59 87 -5 0
-53 -75 -105 -167z m51 -310 c-12 -20 -14 -14 -5 12 4 9 9 14 11 11 3 -2 0
-13 -6 -23z m-80 -140 c-12 -20 -14 -14 -5 12 4 9 9 14 11 11 3 -2 0 -13 -6
-23z m-40 -66 c-10 -9 -11 -8 -5 6 3 10 9 15 12 12 3 -3 0 -11 -7 -18z"/>
<path d="M1017 583 c-3 -5 -7 -37 -8 -72 -3 -45 0 -66 9 -68 8 -3 12 9 12 41
0 62 16 66 30 6 9 -37 17 -50 30 -50 13 0 20 10 25 33 13 63 16 71 26 56 5 -8
9 -31 9 -51 0 -21 5 -38 10 -38 13 0 13 137 0 145 -20 12 -50 -6 -50 -30 0
-13 -5 -36 -12 -52 -11 -28 -11 -28 -21 22 -5 28 -15 53 -21 57 -14 10 -34 10
-39 1z"/>
<path d="M1240 548 c-11 -24 -20 -50 -20 -59 0 -8 -5 -20 -12 -27 -9 -9 -9
-15 -1 -23 8 -8 15 -6 25 10 17 28 63 28 79 0 7 -15 14 -18 21 -11 7 7 3 29
-13 69 -39 98 -50 104 -79 41z m48 -31 c2 -10 -3 -17 -12 -17 -10 0 -16 9 -16
21 0 24 23 21 28 -4z"/>
<path d="M1367 584 c-3 -3 3 -21 14 -39 20 -33 20 -33 -2 -69 -17 -30 -18 -36
-6 -36 9 0 23 10 32 22 l15 23 26 -28 c14 -15 30 -25 35 -22 10 7 7 14 -23 58
-19 27 -19 27 2 56 26 37 6 56 -22 21 l-19 -23 -15 21 c-15 22 -26 27 -37 16z"/>
<path d="M460 280 c0 -25 4 -30 24 -30 33 0 42 17 20 41 -26 28 -44 24 -44
-11z"/>
</g>
</svg>
